<svg xmlns="http://www.w3.org/2000/svg" width="109" height="109" viewBox="0 0 109 109">
  <g id="Group_6" data-name="Group 6" transform="translate(-1067 -170)">
    <g id="post_add-24px" transform="translate(1067 170)">
      <g id="Bounding_Box">
        <rect id="Rectangle_3" data-name="Rectangle 3" width="109" height="109" transform="translate(0)" fill="none"/>
      </g>
      <g id="Flat" transform="translate(13.625 9.083)">
        <g id="Group_1" data-name="Group 1">
          <path id="Path_9" data-name="Path 9" d="M66.583,69.582h-54.5v-55.5H43.875V5H12.083A9.11,9.11,0,0,0,3,14.083v54.5a9.11,9.11,0,0,0,9.083,9.083h54.5a9.11,9.11,0,0,0,9.083-9.083V36.792H66.583Z" transform="translate(-3 8.625)" fill="#7730c1"/>
        </g>
      </g>
    </g>
    <g id="create-24px" transform="translate(1097 179)">
      <path id="Path_12" data-name="Path 12" d="M0,0H74V74H0Z" fill="none"/>
      <path id="Path_13" data-name="Path 13" d="M3,46.938V58.5H14.563l34.1-34.1L37.1,12.836Zm9,5.4H9.167V49.5L37.1,21.562,39.938,24.4Zm45.6-41.224L50.391,3.894a3.089,3.089,0,0,0-4.347,0L40.4,9.537,51.963,21.1l5.643-5.642a3.071,3.071,0,0,0,0-4.348Z" transform="translate(6.25 6.25)" fill="#7730c1"/>
    </g>
  </g>
</svg>
