<?xml version="1.0" encoding="utf-8"?>
<!-- Generator: Adobe Illustrator 23.1.1, SVG Export Plug-In . SVG Version: 6.00 Build 0)  -->
<svg version="1.1" id="Layer_1" xmlns="http://www.w3.org/2000/svg" xmlns:xlink="http://www.w3.org/1999/xlink" x="0px" y="0px"
	 viewBox="0 0 25 25" style="enable-background:new 0 0 25 25;" xml:space="preserve">
<style type="text/css">
	.st0{fill:none;}
	.st1{fill:#6F499D;}
	.st2{fill:#F0A53D;}
</style>
<g id="post_add-24px_2" transform="translate(-0.5 -0.098)">
	<g id="Group_998" transform="translate(0.5)">
		<rect id="Rectangle_2552" x="0.4" y="0.2" class="st0" width="24.2" height="24.9"/>
	</g>
	<g id="Group_1000" transform="translate(2.813 2.822)">
		<g id="Group_999">
			<path id="Path_186" class="st1" d="M15.8,19.9H0.7V3.9h8.9V1.2H0.7c-1.4,0-2.5,1.2-2.5,2.6v15.8c0,1.4,1.1,2.6,2.5,2.6h15.2
				c1.4,0,2.5-1.2,2.5-2.6v-9.2h-2.5V19.9z"/>
			<path id="Path_187" class="st1" d="M18.4-2.7h-2.5v3.9H12c0,0,0,2.6,0,2.6h3.8v3.9c0,0,2.5,0,2.5,0V3.9h3.8V1.2h-3.8V-2.7z"/>
			<rect id="Rectangle_2553" x="3.4" y="5.6" class="st1" width="9.6" height="3.1"/>
			<path id="Path_188" class="st1" d="M3.2,10.4v2.6h10.1v-2.6H3.2z"/>
			<rect id="Rectangle_2554" x="3.4" y="15" class="st1" width="9.6" height="1.9"/>
		</g>
	</g>
</g>
<path id="Path_198" class="st1" d="M-32.8,11h10v2.5h-10V11z M-32.8,6h10v2.5h-10V6z M-25.3-6.5h-10c-1.4,0-2.5,1.1-2.5,2.5v20
	c0,1.4,1.1,2.5,2.5,2.5h15c1.4,0,2.5-1.1,2.5-2.5V1L-25.3-6.5z M-20.3,16h-15V-4h8.7v6.2h6.2L-20.3,16z"/>
<path id="Path_200" class="st2" d="M-24.5-21.3h10v2.5h-10V-21.3z M-24.5-26.3h10v2.5h-10V-26.3z M-17-38.8h-10
	c-1.4,0-2.5,1.1-2.5,2.5v20c0,1.4,1.1,2.5,2.5,2.5h15c1.4,0,2.5-1.1,2.5-2.5v-15L-17-38.8z M-12-16.3h-15v-20h8.7v6.2h6.2L-12-16.3z
	"/>
</svg>
