<?xml version="1.0" encoding="utf-8"?>
<!-- Generator: Adobe Illustrator 24.1.0, SVG Export Plug-In . SVG Version: 6.00 Build 0)  -->
<svg version="1.1" id="Layer_1" xmlns="http://www.w3.org/2000/svg" xmlns:xlink="http://www.w3.org/1999/xlink" x="0px" y="0px"
	 viewBox="0 0 90 90" xml:space="preserve">
<style type="text/css">
	.st0{fill:none;}
	.st1{fill:#7631C1;}
</style>
<g id="post_add-24px_2" transform="translate(-15, -5)">
	<g id="Group_1000" transform="translate(5.908 3.939)">
		<g id="Group_999">
			<path id="Path_186" class="st1" d="M72,82.7H18.3V28.1h31.3v-8.9H18.3c-4.9,0-8.9,4-8.9,8.9v53.7c0,4.9,4,8.9,8.9,8.9H72
				c4.9,0,8.9-4,8.9-8.9V50.4H72V82.7z"/>
			<path id="Path_187" class="st1" d="M80.9,5.7H72v13.4H58.6c0,0,0,8.9,0,8.9H72v13.4c0,0,8.9,0,8.9,0V28.1h13.4v-8.9H80.9V5.7z"/>
			<rect id="Rectangle_2553" x="26.6" y="35.4" class="st1" width="36.3" height="9.1"/>
			<path id="Path_188" class="st1" d="M27.2,50.4v8.9H63v-8.9H27.2z"/>
			<rect id="Rectangle_2554" x="26.6" y="64.9" class="st1" width="36.3" height="6.8"/>
		</g>
	</g>
</g>
</svg>
