<?xml version="1.0" encoding="utf-8"?>
<!-- Generator: Adobe Illustrator 23.1.1, SVG Export Plug-In . SVG Version: 6.00 Build 0)  -->
<svg version="1.1" id="Layer_1" xmlns="http://www.w3.org/2000/svg" xmlns:xlink="http://www.w3.org/1999/xlink" x="0px" y="0px"
	 viewBox="0 0 109 109" style="enable-background:new 0 0 109 109;" xml:space="preserve">
<style type="text/css">
	.st0{fill:#C9C6CE;}
	.st1{fill:none;}
</style>
<g id="Group_6" transform="translate(-1067 -170)">
	<g id="post_add-24px" transform="translate(1067 170)">
		<g id="Flat" transform="translate(13.625 9.083)">
			<g id="Group_1">
				<path id="Path_9" class="st0" d="M63.6,78.2H9.1V22.7h31.8v-9.1H9.1c-5,0-9.1,4.1-9.1,9.1v54.5c0,5,4.1,9.1,9.1,9.1h54.5
					c5,0,9.1-4.1,9.1-9.1V45.4h-9.1V78.2z"/>
			</g>
		</g>
	</g>
	<g id="create-24px" transform="translate(1097 179)">
		<path id="Path_12" class="st1" d="M0,0h74v74H0V0z"/>
		<path id="Path_13" class="st0" d="M9.2,53.2v11.6h11.6l34.1-34.1L43.3,19.1L9.2,53.2z M18.2,58.6h-2.8v-2.8l27.9-27.9l2.8,2.8
			L18.2,58.6z M63.8,17.4l-7.2-7.2c-1.2-1.2-3.1-1.2-4.3,0l-5.6,5.6l11.6,11.6l5.6-5.6C65.1,20.5,65.1,18.6,63.8,17.4
			C63.9,17.4,63.9,17.4,63.8,17.4L63.8,17.4z"/>
	</g>
</g>
</svg>
