<svg xmlns="http://www.w3.org/2000/svg" style="margin-left: -0.25rem;" viewBox="0 0 32 32" preserveAspectRatio="none"><defs><style>.a{fill:none;}.b{fill:#4a2886;}</style></defs><path class="a" d="M0,0H32V32H0Z"/><path class="b" d="M22.752,4.964a.674.674,0,0,1-.307-.072A16.625,16.625,0,0,0,15.017,3.2,16.618,16.618,0,0,0,7.589,4.892a.72.72,0,0,1-.907-.24.577.577,0,0,1,.267-.816A18.241,18.241,0,0,1,15.017,2a18.286,18.286,0,0,1,8.042,1.824.56.56,0,0,1,.28.8.663.663,0,0,1-.587.336Zm-19.084,6.3a.75.75,0,0,1-.387-.108.562.562,0,0,1-.16-.84,13.465,13.465,0,0,1,5-3.924A16.937,16.937,0,0,1,21.872,6.38a13.528,13.528,0,0,1,5,3.9.563.563,0,0,1-.16.84.713.713,0,0,1-.934-.144,12.236,12.236,0,0,0-4.521-3.528A15.461,15.461,0,0,0,8.722,7.46a12.358,12.358,0,0,0-4.534,3.552.6.6,0,0,1-.52.252ZM12,25.748a.661.661,0,0,1-.467-.18A12.368,12.368,0,0,1,8.856,22.4a9.809,9.809,0,0,1-1.4-5.208c0-3.564,3.387-6.468,7.548-6.468s7.548,2.9,7.548,6.468a.671.671,0,0,1-1.334,0c0-2.9-2.787-5.268-6.215-5.268s-6.215,2.364-6.215,5.268a8.657,8.657,0,0,0,1.24,4.62,11.591,11.591,0,0,0,2.467,2.9.572.572,0,0,1,0,.852.777.777,0,0,1-.493.18Zm9.562-2.22a7.774,7.774,0,0,1-4.134-1.068,6.251,6.251,0,0,1-3.174-5.268.671.671,0,0,1,1.334,0,5.053,5.053,0,0,0,2.587,4.272,6.336,6.336,0,0,0,3.387.852,9.768,9.768,0,0,0,1.387-.12.662.662,0,0,1,.773.492.607.607,0,0,1-.547.7A10.093,10.093,0,0,1,21.565,23.528ZM18.884,26a.861.861,0,0,1-.173-.024,10.746,10.746,0,0,1-4.961-2.52,8.34,8.34,0,0,1-2.894-6.264,3.855,3.855,0,0,1,4.108-3.528,3.855,3.855,0,0,1,4.108,3.528,2.581,2.581,0,0,0,2.774,2.328,2.581,2.581,0,0,0,2.774-2.328c0-4.524-4.334-8.2-9.669-8.2a9.907,9.907,0,0,0-8.815,4.836,7.072,7.072,0,0,0-.787,3.36,10.862,10.862,0,0,0,.894,4.332.571.571,0,0,1-.387.768A.685.685,0,0,1,5,21.944a12.19,12.19,0,0,1-.974-4.752A8.257,8.257,0,0,1,4.935,13.3,11.256,11.256,0,0,1,14.95,7.784c6.068,0,11,4.212,11,9.4a3.855,3.855,0,0,1-4.108,3.528,3.855,3.855,0,0,1-4.108-3.528,2.581,2.581,0,0,0-2.774-2.328A2.581,2.581,0,0,0,12.19,17.18a7.2,7.2,0,0,0,2.494,5.412,9.362,9.362,0,0,0,4.361,2.22.592.592,0,0,1,.467.732.64.64,0,0,1-.627.456Z" transform="translate(4.403 2.694)"/></svg>