<?xml version="1.0" encoding="utf-8"?>
<!-- Generator: Adobe Illustrator 23.1.1, SVG Export Plug-In . SVG Version: 6.00 Build 0)  -->
<svg version="1.1" id="Layer_1" xmlns="http://www.w3.org/2000/svg" xmlns:xlink="http://www.w3.org/1999/xlink" x="0px" y="0px"
	 viewBox="0 0 25 25" style="enable-background:new 0 0 25 25;" xml:space="preserve">
<style type="text/css">
	.st0{fill:none;}
	.st1{fill:#7730C1;}
</style>
<g id="Group_1" transform="translate(-1067 -170)">
	<g id="post_add-24px" transform="translate(1067 170)">
		<g id="Bounding_Box">
			<rect id="Rectangle_3" x="30.04" y="-3" class="st0" width="33" height="33"/>
		</g>
		<g id="Flat" transform="translate(13.625 9.083)">
			<g id="Group_1-2">
				<path id="Path_9" class="st1" d="M39.79,14.34h-16.5v-16.8h9.63v-2.75h-9.63c-1.52,0-2.75,1.23-2.75,2.75v16.5
					c0,1.52,1.23,2.75,2.75,2.75h16.5c1.52,0,2.75-1.23,2.75-2.75V4.42h-2.75V14.34z"/>
			</g>
		</g>
	</g>
	<g id="create-24px" transform="translate(1097 179)">
		<path id="Path_12" class="st0" d="M9.12-10.28h22.4v22.4H9.12V-10.28z"/>
		<path id="Path_13" class="st1" d="M11.92,5.83v3.5h3.5L25.75-1l-3.5-3.5L11.92,5.83z M14.65,7.46h-0.86V6.6l8.46-8.46L23.1-1
			L14.65,7.46z M28.45-5.02L26.27-7.2c-0.36-0.36-0.95-0.36-1.32,0L23.24-5.5l3.5,3.5l1.71-1.71C28.82-4.07,28.82-4.65,28.45-5.02
			C28.45-5.02,28.45-5.02,28.45-5.02L28.45-5.02z"/>
	</g>
</g>
<path id="Path_6" class="st1" d="M49.8-27H36.26C35.01-27,34-25.99,34-24.74v15.8h2.26v-15.8H49.8V-27z M48.67-22.49h-7.9
	c-1.24,0-2.25,1.01-2.25,2.26l-0.01,15.8c0,1.24,1,2.25,2.25,2.26h12.42c1.24,0,2.25-1.01,2.26-2.26v-11.28L48.67-22.49z
	 M40.77-4.43v-15.8h6.77v5.64h5.64v10.16H40.77z"/>
<g id="Group_239" transform="translate(-1680.993 -649.596)">
	<path id="Path_4" class="st1" d="M1698.28,622.93v13.89h-11.11v-13.89H1698.28 M1696.2,614.6h-6.94l-1.39,1.39H1683v2.78h19.44
		v-2.78h-4.86L1696.2,614.6z M1701.06,620.15h-16.67v16.67c0,1.53,1.24,2.77,2.78,2.78h11.11c1.53,0,2.77-1.25,2.78-2.78V620.15z"/>
	<rect id="Rectangle_1472" x="1688.7" y="623.96" class="st1" width="1.26" height="11.82"/>
	<rect id="Rectangle_1473" x="1692.22" y="623.96" class="st1" width="1.26" height="11.82"/>
	<rect id="Rectangle_1474" x="1695.74" y="623.96" class="st1" width="1.26" height="11.82"/>
</g>
<g id="sync-24px" transform="translate(-0.01)">
	<path id="Path_24" class="st0" d="M-0.94-0.91h26.91V26H-0.94V-0.91z"/>
	<path id="Path_25" class="st1" d="M12.5,3.58V0.22L8.02,4.7l4.48,4.48V5.82c3.71,0,6.72,3.01,6.73,6.73c0,1.1-0.27,2.17-0.79,3.14
		l1.64,1.64c2.65-4.18,1.4-9.71-2.77-12.35C15.87,4.06,14.2,3.58,12.5,3.58z M12.5,19.27c-3.71,0-6.72-3.01-6.73-6.73
		c0-1.1,0.27-2.17,0.79-3.14L4.92,7.77c-2.65,4.18-1.41,9.71,2.77,12.35c1.44,0.91,3.11,1.39,4.81,1.39v3.36l4.48-4.49l-4.48-4.48
		V19.27z"/>
</g>
</svg>
