<?xml version="1.0" encoding="utf-8"?>
<!-- Generator: Adobe Illustrator 23.1.1, SVG Export Plug-In . SVG Version: 6.00 Build 0)  -->
<svg version="1.1" id="Layer_1" xmlns="http://www.w3.org/2000/svg" xmlns:xlink="http://www.w3.org/1999/xlink" x="0px" y="0px"
	 viewBox="0 0 24 24" style="enable-background:new 0 0 24 24;" xml:space="preserve">
<style type="text/css">
	.st0{fill:#53B913;}
	.st1{fill:#BAB9B9;}
</style>
<g id="check_circle_outline-24px-2" transform="translate(0 13)">
	<path id="Path_66-2" class="st0" d="M12-12.1C5.9-12.1,0.9-7.1,0.9-1S5.9,10.1,12,10.1S23.1,5.1,23.1-1C23-7.1,18.1-12,12-12.1z
		 M12,7.8c-4.9,0-8.8-4-8.8-8.8s4-8.8,8.8-8.8s8.8,4,8.8,8.8C20.8,3.9,16.9,7.8,12,7.8z M17.1-5.9L9.8,1.4L6.9-1.5L5.4,0.1l4.4,4.4
		l8.8-8.8L17.1-5.9z"/>
</g>
<g id="check_circle_outline-24px-3" transform="translate(76 13)">
	<path id="Path_66-3" class="st1" d="M-28-12.5c-6.5,0-11.7,5.3-11.7,11.7S-34.5,11-28,11s11.7-5.3,11.7-11.7l0,0
		C-16.2-7.2-21.5-12.5-28-12.5z M-28,8.7c-5.2,0-9.4-4.2-9.4-9.4s4.2-9.4,9.4-9.4s9.4,4.2,9.4,9.4C-18.6,4.4-22.8,8.6-28,8.7z
		 M-22.6-5.9l-7.7,7.7l-3-3L-35,0.4l4.7,4.7l9.4-9.4L-22.6-5.9z"/>
</g>
<g id="check_circle_outline-24px-4" transform="translate(152 13)">
	<path id="Path_66-4" d="M-68-11.8c-6.1,0-11.1,4.9-11.1,11.1s4.9,11.1,11.1,11.1S-57,5.4-57-0.7C-57-6.8-61.9-11.8-68-11.8z
		 M-68,8.1c-4.9,0-8.8-4-8.8-8.8s4-8.8,8.8-8.8c4.9,0,8.8,4,8.8,8.8C-59.2,4.1-63.1,8.1-68,8.1z M-63-5.6l-7.3,7.3l-2.9-2.8
		l-1.6,1.6l4.4,4.4l8.8-8.8L-63-5.6z"/>
</g>
</svg>
