<?xml version="1.0" encoding="utf-8"?>
<!-- Generator: Adobe Illustrator 23.1.1, SVG Export Plug-In . SVG Version: 6.00 Build 0)  -->
<svg version="1.1" id="Layer_1" xmlns="http://www.w3.org/2000/svg" xmlns:xlink="http://www.w3.org/1999/xlink" x="0px" y="0px"
	 viewBox="0 0 24 24" style="enable-background:new 0 0 24 24;" xml:space="preserve">
<style type="text/css">
	.st0{fill:#53B913;}
	.st1{fill:#BAB9B9;}
</style>
<g id="check_circle_outline-24px-2" transform="translate(0 13)">
	<path id="Path_66-2" class="st0" d="M17,71.9c-6.1,0-11.1,4.9-11.1,11.1S10.9,94.1,17,94.1S28.1,89.1,28.1,83
		C28,76.9,23.1,72,17,71.9z M17,91.8c-4.9,0-8.8-4-8.8-8.8c0-4.9,4-8.8,8.8-8.8s8.8,4,8.8,8.8C25.8,87.9,21.9,91.8,17,91.8z
		 M22.1,78.1l-7.3,7.3l-2.9-2.8l-1.6,1.6l4.4,4.4l8.8-8.8L22.1,78.1z"/>
</g>
<g id="check_circle_outline-24px-3" transform="translate(76 13)">
	<path id="Path_66-3" class="st1" d="M-62,32.3c-6.5,0-11.7,5.3-11.7,11.7s5.3,11.7,11.7,11.7s11.7-5.3,11.7-11.7l0,0
		C-50.3,37.5-55.5,32.3-62,32.3z M-62,53.4c-5.2,0-9.4-4.2-9.4-9.4s4.2-9.4,9.4-9.4s9.4,4.2,9.4,9.4C-52.6,49.2-56.8,53.4-62,53.4z
		 M-56.6,38.8l-7.7,7.7l-3-3l-1.7,1.7l4.7,4.7l9.4-9.4L-56.6,38.8z"/>
</g>
<g id="check_circle_outline-24px-4" transform="translate(152 13)">
	<path id="Path_66-4" d="M-140-12.1c-6.1,0-11.1,4.9-11.1,11.1s4.9,11.1,11.1,11.1s11.1-4.9,11.1-11.1C-129-7.1-133.9-12-140-12.1z
		 M-140,7.8c-4.9,0-8.8-4-8.8-8.8s4-8.8,8.8-8.8s8.8,4,8.8,8.8C-131.2,3.9-135.1,7.8-140,7.8z M-134.9-5.9l-7.3,7.3l-2.9-2.8
		l-1.6,1.6l4.4,4.4l8.8-8.8L-134.9-5.9z"/>
</g>
</svg>
