<?xml version="1.0" encoding="utf-8"?>
<!-- Generator: Adobe Illustrator 23.1.1, SVG Export Plug-In . SVG Version: 6.00 Build 0)  -->
<svg version="1.1" id="Layer_1" xmlns="http://www.w3.org/2000/svg" xmlns:xlink="http://www.w3.org/1999/xlink" x="0px" y="0px"
	 viewBox="0 0 24 24" style="enable-background:new 0 0 24 24;" xml:space="preserve">
<style type="text/css">
	.st0{fill:#53B913;}
	.st1{fill:#BAB9B9;}
</style>
<g id="check_circle_outline-24px-2" transform="translate(0 13)">
	<path id="Path_66-2" class="st0" d="M15,26.9C8.9,26.9,3.9,31.9,3.9,38S8.9,49.1,15,49.1S26.1,44.1,26.1,38
		C26,31.9,21.1,27,15,26.9z M15,46.8c-4.9,0-8.8-4-8.8-8.8s4-8.8,8.8-8.8s8.8,4,8.8,8.8C23.8,42.9,19.9,46.8,15,46.8z M20.1,33.1
		l-7.3,7.3l-2.9-2.8l-1.6,1.6l4.4,4.4l8.8-8.8L20.1,33.1z"/>
</g>
<g id="check_circle_outline-24px-3" transform="translate(76 13)">
	<path id="Path_66-3" class="st1" d="M-64-12.7c-6.5,0-11.7,5.3-11.7,11.7s5.3,11.7,11.7,11.7S-52.3,5.5-52.3-1l0,0
		C-52.3-7.5-57.5-12.7-64-12.7z M-64,8.4c-5.2,0-9.4-4.2-9.4-9.4s4.2-9.4,9.4-9.4s9.4,4.2,9.4,9.4C-54.6,4.2-58.8,8.4-64,8.4z
		 M-58.6-6.2l-7.7,7.7l-3-3L-71,0.2l4.7,4.7l9.4-9.4L-58.6-6.2z"/>
</g>
<g id="check_circle_outline-24px-4" transform="translate(152 13)">
	<path id="Path_66-4" d="M-68-11.8c-6.1,0-11.1,4.9-11.1,11.1s4.9,11.1,11.1,11.1S-57,5.4-57-0.7C-57-6.8-61.9-11.8-68-11.8z
		 M-68,8.1c-4.9,0-8.8-4-8.8-8.8s4-8.8,8.8-8.8c4.9,0,8.8,4,8.8,8.8C-59.2,4.1-63.1,8.1-68,8.1z M-63-5.6l-7.3,7.3l-2.9-2.8
		l-1.6,1.6l4.4,4.4l8.8-8.8L-63-5.6z"/>
</g>
</svg>
