<svg xmlns="http://www.w3.org/2000/svg" xmlns:xlink="http://www.w3.org/1999/xlink" viewBox="0 0 32 32" preserveAspectRatio="none"><defs><style>.a{fill:#4a2885;}.b{clip-path:url(#a);}</style><clipPath id="a"><path class="a" d="M0,0H32V32H0Z"/></clipPath></defs><g class="b"><path class="a" d="M30.333,8.667a2.675,2.675,0,0,1-2.667,2.667,2.266,2.266,0,0,1-.68-.093L22.24,15.973a2.355,2.355,0,0,1,.093.693,2.667,2.667,0,1,1-5.333,0,2.355,2.355,0,0,1,.093-.693l-3.4-3.4a2.622,2.622,0,0,1-1.387,0L6.24,18.653a2.266,2.266,0,0,1,.093.68,2.667,2.667,0,1,1-2.667-2.667,2.266,2.266,0,0,1,.68.093l6.08-6.067A2.355,2.355,0,0,1,10.333,10a2.667,2.667,0,0,1,5.333,0,2.355,2.355,0,0,1-.093.693l3.4,3.4a2.622,2.622,0,0,1,1.387,0l4.733-4.747A2.266,2.266,0,0,1,25,8.667a2.667,2.667,0,0,1,5.333,0Z" transform="translate(0.333 2)"/></g></svg>