<svg xmlns="http://www.w3.org/2000/svg" viewBox="0 0 32 32" preserveAspectRatio="none"><defs><style>.a{fill:#7530c1;}.b{fill:none;}</style></defs><path class="a" d="M11,13.856H8.333V16.49H11Zm5.333,0H13.667V16.49h2.667Zm5.333,0H19V16.49h2.667Zm2.667-9.221H23V2H20.333V4.635H9.667V2H7V4.635H5.667A2.639,2.639,0,0,0,3.013,7.269L3,25.711a2.65,2.65,0,0,0,2.667,2.635H24.333A2.659,2.659,0,0,0,27,25.711V7.269A2.659,2.659,0,0,0,24.333,4.635Zm0,21.077H5.667V11.221H24.333Z" transform="translate(0.952 0.635)"/><path class="b" d="M0,0H31.615V31.615H0Z"/></svg>