<?xml version="1.0" encoding="utf-8"?>
<!-- Generator: Adobe Illustrator 23.1.1, SVG Export Plug-In . SVG Version: 6.00 Build 0)  -->
<svg version="1.1" id="Layer_1" xmlns="http://www.w3.org/2000/svg" xmlns:xlink="http://www.w3.org/1999/xlink" x="0px" y="0px"
	 viewBox="0 0 25 25" style="enable-background:new 0 0 25 25;" xml:space="preserve">
<style type="text/css">
	.st0{fill:none;}
	.st1{fill:#7730C1;}
</style>
<g id="Group_1" transform="translate(-1067 -170)">
	<g id="post_add-24px" transform="translate(1067 170)">
		<g id="Bounding_Box">
			<rect id="Rectangle_3" x="-3.96" y="-4" class="st0" width="33" height="33"/>
		</g>
		<g id="Flat" transform="translate(13.625 9.083)">
			<g id="Group_1-2">
				<path id="Path_9" class="st1" d="M5.79,13.34h-16.5v-16.8h9.63v-2.75h-9.63c-1.52,0-2.75,1.23-2.75,2.75v16.5
					c0,1.52,1.23,2.75,2.75,2.75h16.5c1.52,0,2.75-1.23,2.75-2.75V3.42H5.79V13.34z"/>
			</g>
		</g>
	</g>
	<g id="create-24px" transform="translate(1097 179)">
		<path id="Path_12" class="st0" d="M-24.88-11.28h22.4v22.4h-22.4V-11.28z"/>
		<path id="Path_13" class="st1" d="M-22.08,4.83v3.5h3.5L-8.25-2l-3.5-3.5L-22.08,4.83z M-19.35,6.46h-0.86V5.6l8.46-8.46L-10.9-2
			L-19.35,6.46z M-5.55-6.02L-7.73-8.2c-0.36-0.36-0.95-0.36-1.32,0l-1.71,1.71l3.5,3.5l1.71-1.71C-5.18-5.07-5.18-5.65-5.55-6.02
			C-5.55-6.02-5.55-6.02-5.55-6.02L-5.55-6.02z"/>
	</g>
</g>
</svg>
