<svg xmlns="http://www.w3.org/2000/svg" viewBox="0 0 32 32" preserveAspectRatio="none"><defs><style>.a{fill:#7530c1;}.b{fill:none;}</style></defs><path class="a" d="M23.6,6.684H14L11.6,4H4.4A2.552,2.552,0,0,0,2.012,6.684L2,22.787A2.561,2.561,0,0,0,4.4,25.47H23.6A2.561,2.561,0,0,0,26,22.787V9.368A2.561,2.561,0,0,0,23.6,6.684Zm-6,4.026A2.561,2.561,0,0,1,20,13.393a2.561,2.561,0,0,1-2.4,2.684,2.561,2.561,0,0,1-2.4-2.684A2.561,2.561,0,0,1,17.6,10.709Zm4.8,10.735H12.8V20.1c0-1.785,3.2-2.684,4.8-2.684s4.8.9,4.8,2.684Z" transform="translate(0.684 1.368)"/><path class="b" d="M0,0H32.205V32.205H0Z"/></svg>