<svg xmlns="http://www.w3.org/2000/svg" viewBox="0 0 32 32" preserveAspectRatio="none"><defs><style>.a{fill:#4a2886;}.b{fill:none;}</style></defs><path class="a" d="M14.028,13.341c-3.193-.772-4.22-1.571-4.22-2.814,0-1.427,1.421-2.422,3.8-2.422,2.5,0,3.432,1.113,3.516,2.749H20.23a5.329,5.329,0,0,0-4.515-4.987V3H11.5V5.827c-2.729.55-4.923,2.2-4.923,4.725,0,3.024,2.686,4.529,6.611,5.406,3.516.785,4.22,1.937,4.22,3.155,0,.9-.689,2.343-3.8,2.343-2.9,0-4.037-1.2-4.191-2.749H6.32c.169,2.867,2.475,4.477,5.176,5.013v2.84h4.22V23.747c2.743-.484,4.923-1.963,4.923-4.647C20.638,15.383,17.22,14.113,14.028,13.341Z" transform="translate(1.766 1.22)"/><path class="b" d="M0,0H32V32H0Z"/></svg>