<svg xmlns="http://www.w3.org/2000/svg" viewBox="0 0 32 32" preserveAspectRatio="none"><defs><style>.a{fill:none;}.b{fill:#7530c1;}</style></defs><path class="a" d="M0,0H37.5V37.5H0Z"/><path class="b" d="M17.364,14.794c1.811,0,3.262-2.187,3.262-4.9S19.175,5,17.364,5s-3.273,2.187-3.273,4.9S15.553,14.794,17.364,14.794Zm-8.727,0c1.811,0,3.262-2.187,3.262-4.9S10.447,5,8.636,5,5.364,7.187,5.364,9.9,6.825,14.794,8.636,14.794Zm0,3.265C6.095,18.059,1,19.968,1,23.772v4.081H16.273V23.772C16.273,19.968,11.178,18.059,8.636,18.059Zm8.727,0a8.562,8.562,0,0,0-1.058.082,8.05,8.05,0,0,1,2.149,5.632v4.081H25V23.772C25,19.968,19.905,18.059,17.364,18.059Z" transform="translate(0.563 2.813)"/></svg>