<svg xmlns="http://www.w3.org/2000/svg" viewBox="0 0 32 32" preserveAspectRatio="none"><defs><style>.a{fill:none;}.b{fill:#7530c1;}</style></defs><rect class="a" width="36" height="36"/><g transform="translate(4.5 3)"><path class="b" d="M24,26.33H6V8H16.5V5H6A3.009,3.009,0,0,0,3,8V26a3.009,3.009,0,0,0,3,3H24a3.009,3.009,0,0,0,3-3V15.5H24Z" transform="translate(-3 -0.5)"/><path class="b" d="M21.5,2h-3V6.5H14c.015.015,0,3,0,3h4.5v4.485c.015.015,3,0,3,0V9.5H26v-3H21.5Z" transform="translate(-2 -2)"/><rect class="b" width="12" height="3" transform="translate(4.727 11)"/><path class="b" d="M7,12v3H19V12H7Z" transform="translate(-2.636 3)"/><rect class="b" width="12" height="3" transform="translate(4.727 20)"/></g></svg>