<svg xmlns="http://www.w3.org/2000/svg" viewBox="0 0 32 32" preserveAspectRatio="none"><defs><style>.a{fill:none;}.b{fill:#4a2886;}</style></defs><path class="a" d="M0,0H32V32H0Z"/><path class="b" d="M7.359,17.9l1.629,2.811a.415.415,0,0,0,.5.177l2.023-.815a5.763,5.763,0,0,0,1.371.8l.3,2.159a.421.421,0,0,0,.407.339H16.85a.42.42,0,0,0,.407-.353l.3-2.159a6.043,6.043,0,0,0,1.371-.8l2.023.815a.415.415,0,0,0,.5-.177l1.629-2.811a.418.418,0,0,0-.1-.53l-1.725-1.344a5.119,5.119,0,0,0,.054-.788,7.937,7.937,0,0,0-.054-.8l1.725-1.344a.416.416,0,0,0,.1-.53L21.454,9.735a.415.415,0,0,0-.5-.177l-2.023.815a5.763,5.763,0,0,0-1.371-.8l-.3-2.159a.421.421,0,0,0-.407-.339H13.592a.42.42,0,0,0-.407.353l-.3,2.159a5.716,5.716,0,0,0-1.371.788L9.491,9.559a.415.415,0,0,0-.5.177L7.359,12.546a.418.418,0,0,0,.1.53L9.178,14.42a5.316,5.316,0,0,0-.068.8,7.937,7.937,0,0,0,.054.8L7.44,17.366a.415.415,0,0,0-.081.53Zm7.862-5A2.322,2.322,0,1,1,12.9,15.221,2.33,2.33,0,0,1,15.221,12.9ZM24.726,3H5.716A2.715,2.715,0,0,0,3,5.716v19.01a2.715,2.715,0,0,0,2.716,2.716h19.01a2.715,2.715,0,0,0,2.716-2.716V5.716A2.715,2.715,0,0,0,24.726,3Zm0,21.726H5.716V5.716h19.01Z" transform="translate(0.779 0.779)"/></svg>