<?xml version="1.0" encoding="utf-8"?>
<!-- Generator: Adobe Illustrator 23.1.1, SVG Export Plug-In . SVG Version: 6.00 Build 0)  -->
<svg version="1.1" id="Layer_1" xmlns="http://www.w3.org/2000/svg" xmlns:xlink="http://www.w3.org/1999/xlink" x="0px" y="0px"
	 viewBox="0 0 25 25" style="enable-background:new 0 0 25 25;" xml:space="preserve">
<style type="text/css">
	.st0{fill:none;}
	.st1{fill:#7730C1;}
	.st2{fill:none;stroke:#7730C1;stroke-width:2;stroke-miterlimit:10;}
	.st3{fill:#FFFFFF;stroke:#7730C1;stroke-width:1.5;stroke-miterlimit:10;}
</style>
<g id="Group_1" transform="translate(-1067 -170)">
	<g id="post_add-24px" transform="translate(1067 170)">
		<g id="Bounding_Box">
			<rect id="Rectangle_3" x="61.04" y="-43" class="st0" width="33" height="33"/>
		</g>
		<g id="Flat" transform="translate(13.625 9.083)">
			<g id="Group_1-2">
				<path id="Path_9" class="st1" d="M70.79-25.66h-16.5v-16.8h9.63v-2.75h-9.63c-1.52,0-2.75,1.23-2.75,2.75v16.5
					c0,1.52,1.23,2.75,2.75,2.75h16.5c1.52,0,2.75-1.23,2.75-2.75v-9.62h-2.75V-25.66z"/>
			</g>
		</g>
	</g>
	<g id="create-24px" transform="translate(1097 179)">
		<path id="Path_12" class="st0" d="M40.12-50.28h22.4v22.4h-22.4V-50.28z"/>
		<path id="Path_13" class="st1" d="M42.92-34.17v3.5h3.5L56.75-41l-3.5-3.5L42.92-34.17z M45.65-32.54h-0.86v-0.86l8.46-8.46
			L54.1-41L45.65-32.54z M59.45-45.02l-2.18-2.19c-0.36-0.36-0.95-0.36-1.32,0l-1.71,1.71l3.5,3.5l1.71-1.71
			C59.82-44.07,59.82-44.65,59.45-45.02C59.45-45.02,59.45-45.02,59.45-45.02L59.45-45.02z"/>
	</g>
</g>
<path id="Path_6" class="st1" d="M48.8-35H35.26C34.01-35,33-33.99,33-32.74v15.8h2.26v-15.8H48.8V-35z M47.67-30.49h-7.9
	c-1.24,0-2.25,1.01-2.25,2.26l-0.01,15.8c0,1.24,1,2.25,2.25,2.26h12.42c1.24,0,2.25-1.01,2.26-2.26v-11.28L47.67-30.49z
	 M39.77-12.43v-15.8h6.77v5.64h5.64v10.16H39.77z"/>
<g id="Group_239" transform="translate(-1680.993 -649.596)">
	<path id="Path_4" class="st1" d="M1698.28,622.93v13.89h-11.11v-13.89H1698.28 M1696.2,614.6h-6.94l-1.39,1.39H1683v2.78h19.44
		v-2.78h-4.86L1696.2,614.6z M1701.06,620.15h-16.67v16.67c0,1.53,1.24,2.77,2.78,2.78h11.11c1.53,0,2.77-1.25,2.78-2.78V620.15z"/>
	<rect id="Rectangle_1472" x="1688.7" y="623.96" class="st1" width="1.26" height="11.82"/>
	<rect id="Rectangle_1473" x="1692.22" y="623.96" class="st1" width="1.26" height="11.82"/>
	<rect id="Rectangle_1474" x="1695.74" y="623.96" class="st1" width="1.26" height="11.82"/>
</g>
<g id="sync-24px" transform="translate(-0.01)">
	<path id="Path_24" class="st0" d="M-38.94-60.91h26.91V-34h-26.91V-60.91z"/>
	<path id="Path_25" class="st1" d="M-25.5-56.42v-3.36l-4.48,4.48l4.48,4.48v-3.36c3.71,0,6.72,3.01,6.73,6.73
		c0,1.1-0.27,2.17-0.79,3.14l1.64,1.64c2.65-4.18,1.4-9.71-2.77-12.35C-22.13-55.94-23.8-56.42-25.5-56.42z M-25.5-40.73
		c-3.71,0-6.72-3.01-6.73-6.73c0-1.1,0.27-2.17,0.79-3.14l-1.64-1.64c-2.65,4.18-1.41,9.71,2.77,12.35
		c1.44,0.91,3.11,1.39,4.81,1.39v3.36l4.48-4.49l-4.48-4.48V-40.73z"/>
</g>
<path id="Path_21" class="st1" d="M-29.88-33.94L-39.85-34c-1.37,0-2.49,1.1-2.51,2.48l-0.12,19.93c-0.01,1.37,1.09,2.49,2.47,2.51
	L-25.05-9c1.37,0,2.49-1.1,2.51-2.48l0.09-14.95L-29.88-33.94z M-25.03-11.49l-14.95-0.09l0.12-19.93l8.72,0.05l-0.04,6.23
	l6.23,0.04L-25.03-11.49z"/>
<path id="Path_27" class="st1" d="M-28.36-16.9l-0.54,0l-0.19-0.19c1.62-1.86,1.42-4.68-0.44-6.3s-4.68-1.42-6.3,0.44
	c-1.62,1.86-1.42,4.68,0.44,6.3c1.66,1.45,4.14,1.46,5.82,0.03l0.18,0.19l0,0.54l3.41,3.44l1.03-1.02L-28.36-16.9z M-32.48-16.93
	c-1.7-0.01-3.08-1.4-3.07-3.11c0.01-1.7,1.4-3.08,3.11-3.07c1.7,0.01,3.08,1.4,3.07,3.1C-29.38-18.29-30.77-16.92-32.48-16.93
	C-32.47-16.93-32.48-16.93-32.48-16.93z"/>
<path id="Path_20" class="st0" d="M-12.07,6.88L8.22,7L8.1,27.29l-20.29-0.12L-12.07,6.88z"/>
<path id="Path_26" class="st1" d="M101.06,51.6l-0.51,0l-0.18-0.18c1.54-1.77,1.35-4.45-0.42-5.98c-1.77-1.54-4.45-1.35-5.98,0.42
	c-1.54,1.77-1.35,4.45,0.42,5.98c1.58,1.37,3.93,1.39,5.52,0.03l0.17,0.18l0,0.51l3.24,3.27l0.98-0.97L101.06,51.6z M97.15,51.57
	c-1.62-0.01-2.92-1.33-2.91-2.95c0.01-1.62,1.33-2.92,2.95-2.91c1.62,0.01,2.92,1.33,2.91,2.95c0,0,0,0,0,0
	C100.09,50.28,98.78,51.58,97.15,51.57C97.16,51.57,97.15,51.57,97.15,51.57L97.15,51.57z"/>
<g>
	<path id="Path_21_1_" class="st1" d="M-29.15,4.37l-8.24-0.05c-1.14,0-2.06,0.91-2.07,2.05l-0.1,16.49
		c-0.01,1.13,0.9,2.06,2.04,2.07L-25.14,25c1.14,0,2.06-0.91,2.07-2.05L-23,10.58L-29.15,4.37z M-25.31,22.71l-12.21-0.07l0.1-16.28
		l7.12,0.04l-0.03,5.09l5.09,0.03L-25.31,22.71z"/>
</g>
<path class="st2" d="M16.31,24H3.37C2.62,24,2,23.38,2,22.63V4.37C2,3.62,2.62,3,3.37,3h12.93c0.76,0,1.37,0.62,1.37,1.37v18.25
	C17.68,23.38,17.07,24,16.31,24z"/>
<rect x="4" y="14" class="st1" width="11" height="2"/>
<rect x="4" y="19" class="st1" width="11" height="2"/>
<rect x="4" y="9" class="st1" width="11" height="2"/>
<g>
	<circle class="st3" cx="16.25" cy="12.83" r="7.75"/>
	<path id="Path_19" class="st1" d="M20.65,8.77l1.41,1.41l-6.56,6.56l-4.23-4.22l1.41-1.41l2.82,2.81L20.65,8.77z"/>
</g>
</svg>
