<?xml version="1.0" encoding="utf-8"?>
<!-- Generator: Adobe Illustrator 23.1.1, SVG Export Plug-In . SVG Version: 6.00 Build 0)  -->
<svg version="1.1" id="Layer_1" xmlns="http://www.w3.org/2000/svg" xmlns:xlink="http://www.w3.org/1999/xlink" x="0px" y="0px"
	 viewBox="0 0 25 25" style="enable-background:new 0 0 25 25;" xml:space="preserve">
<style type="text/css">
	.st0{fill:none;}
	.st1{fill:#7730C1;}
</style>
<g id="Group_1" transform="translate(-1067 -170)">
	<g id="post_add-24px" transform="translate(1067 170)">
		<g id="Bounding_Box">
			<rect id="Rectangle_3" x="42.04" y="-3" class="st0" width="33" height="33"/>
		</g>
		<g id="Flat" transform="translate(13.625 9.083)">
			<g id="Group_1-2">
				<path id="Path_9" class="st1" d="M51.79,14.34h-16.5v-16.8h9.63v-2.75h-9.63c-1.52,0-2.75,1.23-2.75,2.75v16.5
					c0,1.52,1.23,2.75,2.75,2.75h16.5c1.52,0,2.75-1.23,2.75-2.75V4.42h-2.75V14.34z"/>
			</g>
		</g>
	</g>
	<g id="create-24px" transform="translate(1097 179)">
		<path id="Path_12" class="st0" d="M21.12-10.28h22.4v22.4h-22.4V-10.28z"/>
		<path id="Path_13" class="st1" d="M23.92,5.83v3.5h3.5L37.75-1l-3.5-3.5L23.92,5.83z M26.65,7.46h-0.86V6.6l8.46-8.46L35.1-1
			L26.65,7.46z M40.45-5.02L38.27-7.2c-0.36-0.36-0.95-0.36-1.32,0L35.24-5.5l3.5,3.5l1.71-1.71C40.82-4.07,40.82-4.65,40.45-5.02
			C40.45-5.02,40.45-5.02,40.45-5.02L40.45-5.02z"/>
	</g>
</g>
<path id="Path_6" class="st1" d="M48.8-35H35.26C34.01-35,33-33.99,33-32.74v15.8h2.26v-15.8H48.8V-35z M47.67-30.49h-7.9
	c-1.24,0-2.25,1.01-2.25,2.26l-0.01,15.8c0,1.24,1,2.25,2.25,2.26h12.42c1.24,0,2.25-1.01,2.26-2.26v-11.28L47.67-30.49z
	 M39.77-12.43v-15.8h6.77v5.64h5.64v10.16H39.77z"/>
<g id="Group_239" transform="translate(-1680.993 -649.596)">
	<path id="Path_4" class="st1" d="M1698.28,622.93v13.89h-11.11v-13.89H1698.28 M1696.2,614.6h-6.94l-1.39,1.39H1683v2.78h19.44
		v-2.78h-4.86L1696.2,614.6z M1701.06,620.15h-16.67v16.67c0,1.53,1.24,2.77,2.78,2.78h11.11c1.53,0,2.77-1.25,2.78-2.78V620.15z"/>
	<rect id="Rectangle_1472" x="1688.7" y="623.96" class="st1" width="1.26" height="11.82"/>
	<rect id="Rectangle_1473" x="1692.22" y="623.96" class="st1" width="1.26" height="11.82"/>
	<rect id="Rectangle_1474" x="1695.74" y="623.96" class="st1" width="1.26" height="11.82"/>
</g>
<g id="sync-24px" transform="translate(-0.01)">
	<path id="Path_24" class="st0" d="M-31.94-35.91h26.91V-9h-26.91V-35.91z"/>
	<path id="Path_25" class="st1" d="M-18.5-31.42v-3.36l-4.48,4.48l4.48,4.48v-3.36c3.71,0,6.72,3.01,6.73,6.73
		c0,1.1-0.27,2.17-0.79,3.14l1.64,1.64c2.65-4.18,1.4-9.71-2.77-12.35C-15.13-30.94-16.8-31.42-18.5-31.42z M-18.5-15.73
		c-3.71,0-6.72-3.01-6.73-6.73c0-1.1,0.27-2.17,0.79-3.14l-1.64-1.64c-2.65,4.18-1.41,9.71,2.77,12.35
		c1.44,0.91,3.11,1.39,4.81,1.39v3.36l4.48-4.49l-4.48-4.48V-15.73z"/>
</g>
<path id="Path_21" class="st1" d="M15.12,0.06L5.15,0C3.78,0,2.66,1.1,2.65,2.48L2.53,22.41C2.52,23.78,3.62,24.9,5,24.91L19.95,25
	c1.37,0,2.49-1.1,2.51-2.48l0.09-14.95L15.12,0.06z M19.97,22.51L5.02,22.42L5.14,2.49l8.72,0.05l-0.04,6.23l6.23,0.04L19.97,22.51z
	"/>
<path id="Path_27" class="st1" d="M16.64,17.1l-0.54,0l-0.19-0.19c1.62-1.86,1.42-4.68-0.44-6.3s-4.68-1.42-6.3,0.44
	c-1.62,1.86-1.42,4.68,0.44,6.3c1.66,1.45,4.14,1.46,5.82,0.03l0.18,0.19l0,0.54l3.41,3.44l1.03-1.02L16.64,17.1z M12.52,17.07
	c-1.7-0.01-3.08-1.4-3.07-3.11c0.01-1.7,1.4-3.08,3.11-3.07c1.7,0.01,3.08,1.4,3.07,3.1C15.62,15.71,14.23,17.08,12.52,17.07
	C12.53,17.07,12.52,17.07,12.52,17.07z"/>
</svg>
